<svg width="270" height="47" viewBox="0 0 270 47" fill="none" xmlns="http://www.w3.org/2000/svg">
<g clip-path="url(#clip0_90:432)">
<path d="M0.979179 3.30219C0.831449 3.04474 0.667926 2.7967 0.489579 2.55952C0.385042 2.43035 0.265067 2.31455 0.132329 2.21472C0.0945553 2.193 0.0626959 2.16226 0.0396138 2.12525C0.0165317 2.08824 0.00293237 2.04608 0 2.00253C0 1.85665 0.0793899 1.79034 0.224942 1.79034H7.35702C7.47611 1.79034 7.54227 1.79034 7.54227 2.00253C7.53629 2.052 7.5188 2.09937 7.49122 2.14083C7.46364 2.18229 7.42675 2.21669 7.38349 2.24124C7.26503 2.31856 7.1581 2.41233 7.06591 2.51974C6.93602 2.65454 6.82476 2.8062 6.73511 2.97065C6.62501 3.2114 6.57505 3.4754 6.58956 3.73984C6.57735 3.9253 6.57735 4.11137 6.58956 4.29683C6.62536 4.54891 6.68292 4.79739 6.76158 5.03949L13.2056 26.0728L17.6648 11.7102L15.4947 4.69468C15.3692 4.23387 15.1917 3.78892 14.9654 3.3685C14.8106 3.10616 14.6336 2.85769 14.4362 2.62584C14.3249 2.50306 14.2055 2.38786 14.0789 2.28103C14.0394 2.26139 14.0061 2.23117 13.9828 2.19371C13.9594 2.15625 13.9469 2.11302 13.9466 2.06884C13.9421 2.03994 13.9444 2.01038 13.9535 1.98257C13.9625 1.95475 13.978 1.92947 13.9986 1.90879C14.0192 1.8881 14.0445 1.8726 14.0722 1.86354C14.1 1.85448 14.1295 1.85212 14.1583 1.85665H21.3036C21.3324 1.85212 21.3619 1.85448 21.3897 1.86354C21.4174 1.8726 21.4427 1.8881 21.4633 1.90879C21.4839 1.92947 21.4994 1.95475 21.5084 1.98257C21.5175 2.01038 21.5198 2.03994 21.5153 2.06884C21.509 2.11662 21.4928 2.16254 21.4678 2.20365C21.4427 2.24477 21.4093 2.28017 21.3698 2.30756C21.2429 2.38999 21.1234 2.48317 21.0125 2.58605C20.8782 2.72023 20.7625 2.87189 20.6685 3.03695C20.5643 3.27957 20.5146 3.54216 20.5229 3.80614C20.5203 3.99392 20.5425 4.18122 20.5891 4.36314C20.5891 4.56206 20.6817 4.81405 20.7346 5.10581L27.2316 26.1391L33.7153 5.05276C33.7978 4.8528 33.8555 4.64347 33.8873 4.42945C33.8989 4.26167 33.8989 4.09329 33.8873 3.9255C33.8953 3.66582 33.8456 3.40761 33.7417 3.16958C33.6546 2.98063 33.5529 2.79883 33.4374 2.62584C33.3495 2.49956 33.2474 2.38385 33.133 2.28103C33.06 2.23083 33.0081 2.15521 32.9875 2.06884C32.983 2.03994 32.9853 2.01038 32.9944 1.98257C33.0034 1.95475 33.0189 1.92947 33.0395 1.90879C33.0602 1.8881 33.0854 1.8726 33.1131 1.86354C33.1409 1.85448 33.1704 1.85212 33.1992 1.85665H37.4864C37.5152 1.85212 37.5447 1.85448 37.5725 1.86354C37.6002 1.8726 37.6255 1.8881 37.6461 1.90879C37.6667 1.92947 37.6822 1.95475 37.6912 1.98257C37.7003 2.01038 37.7026 2.03994 37.6981 2.06884C37.6978 2.11302 37.6853 2.15625 37.6619 2.19371C37.6386 2.23117 37.6053 2.26139 37.5658 2.28103L37.2085 2.61257C37.0029 2.82817 36.8251 3.06877 36.6792 3.32871C36.4428 3.75085 36.2478 4.195 36.097 4.6549L27.9593 31.1786C27.8819 31.5044 27.692 31.7924 27.4232 31.9914C27.1544 32.1904 26.8241 32.2877 26.4906 32.2661H24.9821C24.6541 32.2834 24.3306 32.1836 24.0689 31.9846C23.8073 31.7855 23.6246 31.4999 23.5531 31.1786L18.8954 15.45L14.0921 31.0593C14.0038 31.3736 13.8127 31.6491 13.5496 31.8417C13.2944 32.036 12.9836 32.1429 12.6631 32.1467H11.0885C10.7676 32.1448 10.4562 32.0377 10.2019 31.8417C9.93489 31.6529 9.74281 31.3759 9.6594 31.0593L1.56137 4.69468C1.41492 4.21193 1.21986 3.74537 0.979179 3.30219V3.30219Z" fill="black"/>
<path d="M45.6771 11.498C46.978 11.4888 48.2637 11.7792 49.435 12.3468C50.5945 12.9025 51.6333 13.6821 52.4916 14.6411C53.3768 15.6473 54.0718 16.8068 54.5425 18.0626C55.5656 20.7624 55.5656 23.7444 54.5425 26.4441C54.0718 27.7 53.3768 28.8594 52.4916 29.8657C51.6333 30.8246 50.5945 31.6043 49.435 32.16C48.2637 32.7276 46.978 33.018 45.6771 33.0087C44.3802 33.0193 43.0985 32.7288 41.9324 32.16C40.7626 31.6085 39.7144 30.8285 38.8493 29.8657C37.9464 28.8677 37.2413 27.7065 36.7719 26.4441C35.7488 23.7444 35.7488 20.7624 36.7719 18.0626C37.2413 16.8003 37.9464 15.6391 38.8493 14.6411C39.7144 13.6783 40.7626 12.8983 41.9324 12.3468C43.0985 11.778 44.3802 11.4875 45.6771 11.498V11.498ZM45.6771 30.6216C46.3408 30.6141 46.9832 30.3855 47.5031 29.9718C48.125 29.4817 48.6387 28.8675 49.0115 28.1682C49.4735 27.3363 49.8165 26.4434 50.0304 25.5158C50.5243 23.378 50.5243 21.1553 50.0304 19.0175C49.8178 18.0895 49.4748 17.1964 49.0115 16.3651C48.6314 15.6745 48.1188 15.066 47.5031 14.5748C46.9883 14.1488 46.3445 13.9103 45.6771 13.8984C45.0042 13.903 44.354 14.1421 43.8378 14.5748C43.234 15.071 42.7309 15.6788 42.3558 16.3651C41.887 17.1938 41.5436 18.0877 41.337 19.0175C40.843 21.1553 40.843 23.378 41.337 25.5158C41.5449 26.4452 41.8882 27.3389 42.3558 28.1682C42.7237 28.8632 43.2278 29.4766 43.8378 29.9718C44.3526 30.3854 44.9908 30.6142 45.6506 30.6216H45.6771Z" fill="black"/>
<path d="M68.198 11.498C69.1919 11.4701 70.1827 11.6228 71.1223 11.9489C71.8429 12.2064 72.4903 12.6354 73.0089 13.199C73.5275 13.7627 73.9018 14.4441 74.0995 15.1848C74.3268 15.9734 74.4383 16.791 74.4303 17.6117C74.4503 18.2838 74.3001 18.9499 73.9936 19.548C73.7358 20.0584 73.3754 20.5099 72.9351 20.8742C72.5382 21.1903 72.0908 21.4369 71.6119 21.6035C71.188 21.7597 70.7402 21.8405 70.2887 21.8423C70.2089 21.8436 70.1298 21.8277 70.0568 21.7956C69.9837 21.7636 69.9184 21.7162 69.8652 21.6566C69.7514 21.5292 69.69 21.3634 69.6932 21.1924C69.7011 21.0442 69.7517 20.9014 69.8388 20.7813C69.9631 20.5762 70.0651 20.3584 70.1431 20.1315C70.249 19.853 70.3416 19.5214 70.4475 19.1368C70.5578 18.6588 70.6067 18.1685 70.593 17.678C70.6153 16.7469 70.377 15.828 69.9049 15.0257C69.6687 14.6377 69.3295 14.3232 68.9253 14.1171C68.5211 13.911 68.0678 13.8216 67.6158 13.8586C66.9737 13.8359 66.339 14.0019 65.7898 14.3361C65.3047 14.6472 64.901 15.0701 64.6121 15.5694C64.3006 16.0858 64.077 16.6505 63.9505 17.2404C63.8313 17.8253 63.7693 18.4205 63.7653 19.0175V29.2954C63.7556 29.6568 63.814 30.0167 63.9373 30.3564C64.0371 30.6278 64.1611 30.8897 64.3078 31.1388C64.4089 31.3189 64.5286 31.4878 64.665 31.6428C64.7507 31.7033 64.8118 31.7928 64.8371 31.8947C64.8371 32.0406 64.7709 32.1202 64.6253 32.1202H58.0093C57.9787 32.1246 57.9476 32.1219 57.9183 32.1121C57.8889 32.1024 57.8623 32.0859 57.8404 32.064C57.8186 32.0421 57.8022 32.0154 57.7924 31.986C57.7827 31.9566 57.7799 31.9254 57.7844 31.8947C57.8151 31.7953 57.8751 31.7075 57.9564 31.6428C58.0976 31.4886 58.2218 31.3196 58.3269 31.1388C58.4736 30.8897 58.5976 30.6278 58.6974 30.3564C58.8207 30.0167 58.8791 29.6568 58.8694 29.2954V16.7232C58.8804 16.3618 58.822 16.0016 58.6974 15.6622C58.5976 15.3908 58.4736 15.1289 58.3269 14.8798C58.2212 14.6911 58.0971 14.5135 57.9564 14.3493C57.8505 14.23 57.7844 14.1371 57.7844 14.0708C57.7843 14.0168 57.8048 13.9647 57.8416 13.9253C57.8785 13.8858 57.929 13.862 57.9829 13.8586L58.7636 13.6332C59.3215 13.4662 59.8694 13.2669 60.4043 13.0364C61.3675 12.6105 62.3004 12.1186 63.1963 11.5643C63.2609 11.5212 63.3325 11.4898 63.408 11.4715C63.6726 11.4715 63.805 11.6174 63.805 11.9091V13.5934C64.2486 12.9463 64.8437 12.418 65.5384 12.055C66.3644 11.649 67.2789 11.4575 68.198 11.498V11.498Z" fill="black"/>
<path d="M81.9593 30.3829C82.0591 30.6543 82.1831 30.9162 82.3298 31.1654C82.4309 31.3454 82.5507 31.5144 82.6871 31.6693C82.8061 31.7754 82.8723 31.8682 82.8723 31.9213C82.8768 31.9519 82.874 31.9832 82.8643 32.0126C82.8545 32.0419 82.8381 32.0686 82.8162 32.0905C82.7944 32.1124 82.7678 32.1289 82.7385 32.1387C82.7091 32.1484 82.6779 32.1512 82.6474 32.1467H80.5699C80.08 32.1485 79.5947 32.0529 79.1419 31.8654C78.6891 31.6779 78.2779 31.4023 77.9322 31.0545C77.5864 30.7067 77.3128 30.2936 77.1274 29.8391C76.9419 29.3847 76.8482 28.8979 76.8517 28.4069V5.2119C76.8614 4.85057 76.803 4.49065 76.6797 4.15096C76.5799 3.87952 76.4559 3.61764 76.3092 3.36851C76.2038 3.18378 76.0796 3.01045 75.9387 2.8513C75.8328 2.71868 75.7667 2.62584 75.7667 2.55953C75.7667 2.49322 75.8461 2.37387 75.9916 2.34735L76.7856 2.13515C77.1825 2.0158 77.725 1.81687 78.4263 1.52511C79.378 1.12718 80.2981 0.657241 81.1786 0.119357C81.2484 0.104298 81.3206 0.104298 81.3903 0.119357C81.444 0.112959 81.4984 0.118846 81.5495 0.136578C81.6006 0.15431 81.6469 0.183429 81.6852 0.221731C81.7234 0.260033 81.7524 0.306524 81.7701 0.357707C81.7878 0.408889 81.7937 0.463429 81.7873 0.517217V29.2954C81.7743 29.6656 81.8327 30.0349 81.9593 30.3829V30.3829Z" fill="black"/>
<path d="M104.149 29.2954C104.146 29.6563 104.204 30.0151 104.322 30.3564C104.421 30.6278 104.545 30.8897 104.692 31.1388C104.797 31.3196 104.921 31.4886 105.063 31.6428C105.148 31.7033 105.209 31.7928 105.235 31.8947C105.235 32.0406 105.168 32.1202 105.023 32.1202H102.906C102.197 32.1257 101.504 31.9127 100.921 31.5101C100.339 31.1261 99.8803 30.583 99.5977 29.9452C98.9581 30.8488 98.1324 31.6041 97.1762 32.16C96.143 32.7261 94.9792 33.0097 93.802 32.9822C92.5252 33.0035 91.2625 32.7122 90.1235 32.1335C89.0314 31.5791 88.0704 30.7968 87.3051 29.8392C86.5002 28.8174 85.886 27.6582 85.4923 26.4176C84.6274 23.691 84.6274 20.7627 85.4923 18.0361C85.886 16.7955 86.5002 15.6363 87.3051 14.6146C88.0704 13.6569 89.0314 12.8746 90.1235 12.3202C91.2625 11.7415 92.5252 11.4502 93.802 11.4715C94.8877 11.4425 95.9642 11.6792 96.938 12.1611C97.8293 12.6365 98.6166 13.2858 99.2537 14.0708V5.18538C99.257 4.82449 99.1988 4.46568 99.0816 4.12442C98.9818 3.85298 98.8578 3.59111 98.7111 3.34198C98.6057 3.15725 98.4816 2.98393 98.3406 2.82477C98.2216 2.69215 98.1686 2.59931 98.1686 2.53301C98.1685 2.47895 98.189 2.4269 98.2259 2.38747C98.2628 2.34803 98.3133 2.3242 98.3671 2.32082L99.1346 2.10863C99.5315 1.98927 100.074 1.79034 100.775 1.49858C101.741 1.10315 102.678 0.642336 103.581 0.119349C103.636 0.0978717 103.697 0.0978717 103.753 0.119349C104.03 0.119349 104.176 0.251971 104.176 0.517208L104.149 29.2954ZM94.5034 30.6216C95.1916 30.5943 95.861 30.388 96.4456 30.023C97.0302 29.6579 97.51 29.1467 97.8378 28.5395C98.8687 26.6137 99.3278 24.4324 99.161 22.2534C99.3144 20.0965 98.8556 17.9402 97.8378 16.0336C97.5186 15.414 97.0425 14.8894 96.4573 14.5123C95.8721 14.1353 95.1983 13.919 94.5034 13.8851C93.8305 13.8897 93.1802 14.1289 92.6641 14.5615C92.0598 15.0608 91.5529 15.6678 91.1688 16.3519C90.7112 17.1858 90.3685 18.078 90.15 19.0042C89.6736 21.144 89.6736 23.3627 90.15 25.5025C90.3694 26.4285 90.7121 27.3206 91.1688 28.1549C91.5456 28.8477 92.0535 29.4604 92.6641 29.9585C93.1842 30.3826 93.8329 30.6164 94.5034 30.6216Z" fill="black"/>
<path d="M119.459 31.9478C119.484 31.8458 119.545 31.7564 119.631 31.6958C119.772 31.5416 119.896 31.3727 120.001 31.1919C120.148 30.9427 120.272 30.6809 120.372 30.4094C120.489 30.0682 120.547 29.7094 120.544 29.3485V4.60185C120.546 4.24106 120.488 3.88247 120.372 3.54091C120.272 3.26946 120.148 3.00758 120.001 2.75845C119.896 2.57764 119.772 2.40869 119.631 2.25451C119.545 2.19393 119.484 2.10449 119.459 2.00253C119.454 1.97363 119.457 1.94406 119.466 1.91625C119.475 1.88844 119.49 1.86317 119.511 1.84248C119.532 1.8218 119.557 1.80629 119.585 1.79723C119.612 1.78817 119.642 1.78581 119.671 1.79034H131.58C132.593 1.77988 133.597 1.9785 134.53 2.37386C135.439 2.75019 136.266 3.29967 136.965 3.99181C137.652 4.69039 138.2 5.51412 138.579 6.41873C139.013 7.45059 139.214 8.56559 139.168 9.68424C139.122 10.8029 138.831 11.8976 138.315 12.8905C137.768 13.9414 136.984 14.8497 136.025 15.5429C137.513 16.2258 138.779 17.3151 139.678 18.6859C140.455 19.8825 140.926 21.253 141.049 22.6758C141.171 24.0986 140.941 25.5297 140.379 26.842C139.502 28.9226 137.85 30.5783 135.774 31.4571C134.702 31.9273 133.544 32.1667 132.373 32.16H119.697C119.538 32.1467 119.459 32.0671 119.459 31.9478ZM125.466 14.7074H129.013C129.713 14.6872 130.401 14.5248 131.037 14.23C131.647 13.9509 132.203 13.5647 132.678 13.0894C133.159 12.6018 133.541 12.0253 133.803 11.3919C134.078 10.742 134.217 10.0424 134.213 9.33633C134.215 8.61926 134.066 7.90982 133.776 7.25422C133.507 6.61753 133.121 6.03719 132.638 5.54344C132.143 5.05228 131.56 4.66063 130.918 4.38966C130.264 4.09919 129.556 3.95007 128.84 3.95202H125.466V14.7074ZM125.466 29.8922H129.674C130.536 29.8998 131.39 29.7187 132.175 29.3617C132.93 29.0495 133.621 28.5999 134.213 28.0355C134.772 27.4342 135.22 26.7382 135.536 25.98C135.881 25.176 136.057 24.3091 136.052 23.4337C136.053 22.5858 135.882 21.7466 135.549 20.967C135.244 20.2071 134.794 19.5135 134.226 18.9247C133.637 18.3693 132.957 17.9206 132.215 17.5985C131.431 17.249 130.585 17.0596 129.727 17.0415H125.44L125.466 29.8922Z" fill="black"/>
<path d="M162.132 30.3829C162.232 30.6543 162.356 30.9162 162.503 31.1654C162.608 31.3462 162.732 31.5151 162.873 31.6693C162.955 31.734 163.015 31.8219 163.045 31.9213C163.05 31.9519 163.047 31.9832 163.037 32.0126C163.028 32.0419 163.011 32.0686 162.989 32.0905C162.967 32.1124 162.941 32.1289 162.911 32.1387C162.882 32.1484 162.851 32.1512 162.82 32.1467H160.703C160.063 32.144 159.434 31.9737 158.879 31.6527C158.325 31.3318 157.863 30.8712 157.541 30.3166V30.4094C157.076 31.2009 156.371 31.8233 155.53 32.1865C154.291 32.7761 152.93 33.0582 151.56 33.0088C150.585 33.0709 149.609 32.9231 148.696 32.5754C147.783 32.2277 146.955 31.6881 146.267 30.9929C145.005 29.4872 144.358 27.5593 144.454 25.5954V16.7497C144.465 16.3883 144.407 16.0281 144.282 15.6888C144.182 15.4173 144.058 15.1555 143.912 14.9063C143.806 14.7177 143.682 14.54 143.541 14.3758C143.435 14.2565 143.369 14.1637 143.369 14.0973C143.369 14.031 143.449 13.8984 143.594 13.8454C144.191 13.7389 144.773 13.5608 145.328 13.3149C145.923 13.0629 146.492 12.7977 147.008 12.5324C147.524 12.2672 147.974 12.0418 148.331 11.8296C148.53 11.6805 148.754 11.5683 148.993 11.498C149.258 11.498 149.39 11.6439 149.39 11.9357V25.8076C149.392 26.3896 149.441 26.9706 149.535 27.5449C149.626 28.0892 149.819 28.6113 150.104 29.0832C150.376 29.5342 150.753 29.9121 151.203 30.184C151.741 30.4944 152.355 30.6461 152.976 30.6216C153.64 30.6477 154.301 30.5206 154.908 30.2503C155.38 30.0341 155.793 29.7065 156.112 29.2954C156.421 28.9057 156.642 28.4532 156.76 27.9692C156.89 27.5119 156.957 27.039 156.959 26.5635V16.7232C156.974 16.1938 156.856 15.6691 156.615 15.1981C156.419 14.8564 156.189 14.5363 155.926 14.2432C155.926 14.2432 155.926 14.1637 155.926 14.0708C155.926 13.978 156.006 13.8719 156.151 13.8188C156.748 13.7124 157.33 13.5343 157.885 13.2884C158.48 13.0364 159.049 12.7712 159.565 12.5059C160.081 12.2407 160.531 12.0152 160.888 11.803C161.09 11.6661 161.308 11.5548 161.537 11.4715C161.635 11.4751 161.728 11.5126 161.802 11.5776C161.848 11.6187 161.884 11.6701 161.907 11.7277C161.93 11.7852 161.939 11.8474 161.934 11.9091V29.2954C161.929 29.6674 161.997 30.0367 162.132 30.3829Z" fill="black"/>
<path d="M171.778 29.3617C171.769 29.7231 171.827 30.083 171.951 30.4227C172.042 30.693 172.157 30.9548 172.295 31.2051C172.397 31.3844 172.517 31.5532 172.652 31.7091C172.758 31.8284 172.824 31.908 172.824 31.9611C172.828 31.9917 172.826 32.0229 172.816 32.0523C172.806 32.0817 172.79 32.1084 172.768 32.1303C172.746 32.1522 172.719 32.1687 172.69 32.1784C172.661 32.1882 172.629 32.191 172.599 32.1865H165.983C165.837 32.1865 165.771 32.1069 165.771 31.9611C165.771 31.8152 165.771 31.8284 165.943 31.7091C166.083 31.5566 166.203 31.3873 166.3 31.2051C166.452 30.9586 166.576 30.6962 166.671 30.4227C166.794 30.083 166.853 29.7231 166.843 29.3617V16.7895C166.853 16.4282 166.794 16.0682 166.671 15.7285C166.576 15.455 166.452 15.1926 166.3 14.9461C166.196 14.7641 166.076 14.5912 165.943 14.4289C165.824 14.2963 165.771 14.2034 165.771 14.1371C165.771 14.0852 165.789 14.0348 165.823 13.9957C165.858 13.9566 165.905 13.9314 165.956 13.9249L166.737 13.7127C167.134 13.5934 167.677 13.3945 168.378 13.1027C169.342 12.6795 170.275 12.1876 171.17 11.6306C171.244 11.6156 171.321 11.6156 171.395 11.6306C171.447 11.6213 171.501 11.6247 171.552 11.6407C171.603 11.6567 171.649 11.6848 171.687 11.7226C171.724 11.7604 171.752 11.8067 171.768 11.8576C171.784 11.9086 171.788 11.9627 171.778 12.0152V29.3617ZM169.291 8.46105C168.856 8.46802 168.425 8.38704 168.023 8.22297C167.62 8.05889 167.255 7.8151 166.949 7.5062C166.635 7.20531 166.388 6.8425 166.221 6.44073C166.055 6.03896 165.974 5.60697 165.983 5.17211C165.974 4.73134 166.055 4.29342 166.221 3.88521C166.387 3.477 166.635 3.10711 166.949 2.79824C167.571 2.17789 168.413 1.82968 169.291 1.82968C170.169 1.82968 171.011 2.17789 171.633 2.79824C171.947 3.10711 172.194 3.477 172.36 3.88521C172.527 4.29342 172.608 4.73134 172.599 5.17211C172.608 5.60697 172.526 6.03896 172.36 6.44073C172.194 6.8425 171.946 7.20531 171.633 7.5062C171.327 7.8151 170.961 8.05889 170.559 8.22297C170.157 8.38704 169.725 8.46802 169.291 8.46105V8.46105Z" fill="black"/>
<path d="M181.385 30.3829C181.485 30.6543 181.609 30.9162 181.755 31.1653C181.861 31.3462 181.985 31.5151 182.126 31.6693C182.207 31.734 182.267 31.8218 182.298 31.9213C182.302 31.9519 182.3 31.9832 182.29 32.0125C182.28 32.0419 182.264 32.0686 182.242 32.0905C182.22 32.1124 182.193 32.1289 182.164 32.1386C182.135 32.1484 182.104 32.1512 182.073 32.1467H179.996C179.506 32.1485 179.02 32.0529 178.568 31.8654C178.115 31.6779 177.704 31.4023 177.358 31.0545C177.012 30.7067 176.738 30.2936 176.553 29.8391C176.368 29.3847 176.274 28.8979 176.277 28.4069V5.21189C176.287 4.85055 176.229 4.49063 176.105 4.15095C176.006 3.87951 175.882 3.61762 175.735 3.3685C175.633 3.18446 175.514 3.01117 175.378 2.85128C175.259 2.71867 175.206 2.62583 175.206 2.55952C175.206 2.49321 175.272 2.37386 175.417 2.34734L176.211 2.13514C176.608 2.01579 177.151 1.81686 177.865 1.5251C178.811 1.12372 179.726 0.653902 180.604 0.119346C180.678 0.104342 180.755 0.104342 180.829 0.119346C180.882 0.112431 180.936 0.118077 180.987 0.135838C181.038 0.1536 181.083 0.182983 181.121 0.221639C181.158 0.260295 181.186 0.307156 181.202 0.358474C181.218 0.409793 181.222 0.464153 181.213 0.517205V29.2954C181.2 29.6656 181.258 30.0349 181.385 30.3829Z" fill="black"/>
<path d="M203.588 29.2954C203.579 29.6568 203.637 30.0167 203.76 30.3564C203.856 30.6273 203.976 30.8891 204.118 31.1388C204.227 31.3166 204.351 31.4852 204.488 31.6428C204.574 31.7033 204.635 31.7928 204.66 31.8947C204.66 32.0406 204.594 32.1202 204.448 32.1202H202.345C201.632 32.1275 200.934 31.9145 200.347 31.5101C199.765 31.1261 199.306 30.583 199.023 29.9453C198.384 30.8488 197.558 31.6041 196.602 32.16C195.569 32.7261 194.405 33.0097 193.228 32.9822C191.951 33.0035 190.688 32.7122 189.549 32.1335C188.457 31.5791 187.496 30.7968 186.731 29.8392C185.931 28.8141 185.317 27.6559 184.918 26.4176C184.053 23.691 184.053 20.7627 184.918 18.0361C185.316 16.7948 185.935 15.6357 186.744 14.6146C187.516 13.6593 188.487 12.8852 189.589 12.3468C190.729 11.7716 191.991 11.4804 193.267 11.498C194.353 11.4663 195.43 11.7032 196.403 12.1876C197.297 12.6594 198.085 13.3093 198.719 14.0973V5.21189C198.729 4.85056 198.67 4.49064 198.547 4.15095C198.447 3.87951 198.323 3.61763 198.176 3.3685C198.071 3.18377 197.947 3.01044 197.806 2.85129C197.7 2.71867 197.634 2.62583 197.634 2.55952C197.634 2.50547 197.654 2.45342 197.691 2.41399C197.728 2.37455 197.779 2.35072 197.832 2.34734L198.613 2.13515C198.997 2.01579 199.539 1.81686 200.241 1.5251C201.185 1.12107 202.1 0.651346 202.98 0.119349C203.035 0.10015 203.096 0.10015 203.152 0.119349C203.443 0.119349 203.588 0.251971 203.588 0.517208V29.2954ZM193.929 30.6216C194.617 30.5943 195.287 30.388 195.871 30.023C196.456 29.6579 196.936 29.1467 197.263 28.5395C198.317 26.6205 198.799 24.4388 198.653 22.2534C198.786 20.0901 198.304 17.9334 197.263 16.0336C196.944 15.414 196.468 14.8894 195.883 14.5123C195.298 14.1353 194.624 13.919 193.929 13.8851C193.256 13.8898 192.606 14.1289 192.09 14.5615C191.486 15.0577 190.983 15.6655 190.608 16.3519C190.139 17.1805 189.796 18.0744 189.589 19.0042C189.095 21.142 189.095 23.3647 189.589 25.5025C189.797 26.432 190.14 27.3257 190.608 28.1549C190.976 28.8499 191.48 29.4633 192.09 29.9585C192.61 30.3826 193.259 30.6164 193.929 30.6216V30.6216Z" fill="black"/>
<path d="M224.389 22.1606C224.391 22.3254 224.36 22.4889 224.298 22.6417C224.237 22.7945 224.145 22.9335 224.029 23.0506C223.914 23.1678 223.776 23.2608 223.624 23.3243C223.473 23.3878 223.31 23.4204 223.145 23.4204H211.766C211.917 24.4183 212.249 25.3801 212.745 26.2585C213.152 26.9571 213.686 27.5733 214.32 28.0753C214.885 28.515 215.533 28.8354 216.225 29.0169C216.864 29.1867 217.522 29.2758 218.183 29.2822C218.951 29.2966 219.714 29.1661 220.433 28.8976C220.992 28.6777 221.532 28.4116 222.047 28.1019C222.439 27.8559 222.819 27.5904 223.185 27.3061C223.414 27.1016 223.701 26.972 224.005 26.9348C224.124 26.9348 224.177 27.0674 224.177 27.3327C224.137 27.8453 223.998 28.3452 223.767 28.8047C223.447 29.5018 222.998 30.1318 222.444 30.6614C221.77 31.3316 220.981 31.8751 220.115 32.2661C219.01 32.7626 217.806 33.0028 216.595 32.969C215.304 32.9718 214.028 32.6816 212.864 32.1202C211.707 31.5601 210.669 30.781 209.807 29.8259C208.905 28.8228 208.2 27.6573 207.73 26.3911C207.223 25.0572 206.967 23.6408 206.976 22.2136C206.954 20.6456 207.177 19.0839 207.637 17.5852C208.025 16.3568 208.65 15.2167 209.477 14.23C210.227 13.3534 211.162 12.6556 212.216 12.1876C213.271 11.7259 214.412 11.491 215.563 11.498C216.927 11.4681 218.282 11.735 219.533 12.2805C220.588 12.7695 221.523 13.4848 222.272 14.3758C223.008 15.2982 223.544 16.3641 223.847 17.5056C224.182 18.7551 224.347 20.0444 224.336 21.3383L224.389 22.1606ZM220.062 21.0333C220.062 20.4365 220.062 19.7071 219.943 18.9114C219.852 18.1152 219.67 17.3321 219.401 16.5773C219.143 15.8538 218.722 15.2001 218.17 14.6676C217.549 14.1172 216.735 13.8359 215.907 13.8852C215.284 13.8664 214.665 14.0004 214.105 14.2754C213.544 14.5504 213.06 14.9581 212.692 15.4633C211.775 16.9949 211.359 18.7754 211.501 20.5559V21.0333H220.062Z" fill="black"/>
<path d="M237.634 11.498C238.628 11.4701 239.619 11.6228 240.559 11.9489C241.279 12.2064 241.927 12.6354 242.445 13.199C242.964 13.7627 243.338 14.4441 243.536 15.1848C243.763 15.9734 243.875 16.791 243.867 17.6117C243.887 18.2838 243.736 18.9499 243.43 19.548C243.172 20.0584 242.812 20.5099 242.371 20.8742C241.975 21.1903 241.527 21.4369 241.048 21.6035C240.645 21.7523 240.221 21.833 239.791 21.8423C239.711 21.8436 239.632 21.8277 239.559 21.7956C239.486 21.7636 239.421 21.7162 239.368 21.6566C239.254 21.5292 239.192 21.3634 239.196 21.1924C239.204 21.0442 239.254 20.9014 239.341 20.7813C239.466 20.5762 239.568 20.3584 239.646 20.1315C239.751 19.853 239.844 19.5214 239.95 19.1368C240.06 18.6588 240.109 18.1685 240.096 17.678C240.118 16.7469 239.879 15.828 239.407 15.0257C239.171 14.6377 238.832 14.3232 238.428 14.1171C238.024 13.911 237.57 13.8216 237.118 13.8586C236.476 13.8359 235.842 14.0019 235.292 14.3361C234.807 14.6506 234.399 15.0725 234.101 15.5694C233.8 16.0891 233.581 16.653 233.453 17.2404C233.334 17.8253 233.272 18.4205 233.268 19.0175V29.2954C233.258 29.6568 233.317 30.0167 233.44 30.3564C233.535 30.6299 233.659 30.8923 233.81 31.1388C233.911 31.3189 234.031 31.4878 234.168 31.6428C234.253 31.7033 234.314 31.7928 234.34 31.8947C234.34 32.0406 234.273 32.1202 234.128 32.1202H227.512C227.481 32.1246 227.45 32.1219 227.421 32.1121C227.391 32.1024 227.365 32.0859 227.343 32.064C227.321 32.0421 227.305 32.0154 227.295 31.986C227.285 31.9566 227.282 31.9254 227.287 31.8947C227.318 31.7953 227.378 31.7075 227.459 31.6428C227.6 31.4886 227.724 31.3196 227.829 31.1388C227.976 30.8897 228.1 30.6278 228.2 30.3564C228.323 30.0167 228.382 29.6568 228.372 29.2954V16.7232C228.383 16.3618 228.324 16.0016 228.2 15.6622C228.1 15.3908 227.976 15.1289 227.829 14.8798C227.724 14.6911 227.6 14.5135 227.459 14.3493C227.353 14.23 227.287 14.1371 227.287 14.0708C227.287 14.0168 227.307 13.9647 227.344 13.9253C227.381 13.8858 227.432 13.862 227.485 13.8586L228.266 13.6332C228.824 13.4662 229.372 13.2669 229.907 13.0364C230.87 12.6105 231.803 12.1186 232.699 11.5643C232.763 11.5212 232.835 11.4898 232.911 11.4715C233.175 11.4715 233.308 11.6174 233.308 11.9091V13.5934C233.732 12.9543 234.304 12.4268 234.975 12.055C235.801 11.649 236.715 11.4575 237.634 11.498V11.498Z" fill="black"/>
<path d="M16.7121 36.3507H13.3644V38.34H16.7121V36.3507Z" fill="#231F20"/>
<path d="M10.7047 36.3507H7.35699V38.34H10.7047V36.3507Z" fill="#231F20"/>
<path d="M4.71062 36.3507H1.36292V38.34H4.71062V36.3507Z" fill="#231F20"/>
<path d="M34.7606 36.3507H31.4129V38.34H34.7606V36.3507Z" fill="#231F20"/>
<path d="M28.7532 36.3507H25.4055V38.34H28.7532V36.3507Z" fill="#231F20"/>
<path d="M22.7591 36.3507H19.4114V38.34H22.7591V36.3507Z" fill="#231F20"/>
<path d="M52.8091 36.3507H49.4614V38.34H52.8091V36.3507Z" fill="#231F20"/>
<path d="M46.8017 36.3507H43.454V38.34H46.8017V36.3507Z" fill="#231F20"/>
<path d="M40.8076 36.3507H37.4599V38.34H40.8076V36.3507Z" fill="#231F20"/>
<path d="M70.8444 36.3507H67.4967V38.34H70.8444V36.3507Z" fill="#231F20"/>
<path d="M64.8371 36.3507H61.4893V38.34H64.8371V36.3507Z" fill="#231F20"/>
<path d="M58.8562 36.3507H55.5085V38.34H58.8562V36.3507Z" fill="#231F20"/>
<path d="M88.8929 36.3507H85.5452V38.34H88.8929V36.3507Z" fill="#231F20"/>
<path d="M82.8855 36.3507H79.5378V38.34H82.8855V36.3507Z" fill="#231F20"/>
<path d="M76.9047 36.3507H73.557V38.34H76.9047V36.3507Z" fill="#231F20"/>
<path d="M106.941 36.3507H103.594V38.34H106.941V36.3507Z" fill="#231F20"/>
<path d="M100.934 36.3507H97.5864V38.34H100.934V36.3507Z" fill="#231F20"/>
<path d="M94.9532 36.3507H91.6055V38.34H94.9532V36.3507Z" fill="#231F20"/>
<path d="M124.99 36.3507H121.642V38.34H124.99V36.3507Z" fill="#231F20"/>
<path d="M118.983 36.3507H115.635V38.34H118.983V36.3507Z" fill="#231F20"/>
<path d="M112.988 36.3507H109.641V38.34H112.988V36.3507Z" fill="#231F20"/>
<path d="M143.038 36.3507H139.691V38.34H143.038V36.3507Z" fill="#231F20"/>
<path d="M137.031 36.3507H133.683V38.34H137.031V36.3507Z" fill="#231F20"/>
<path d="M131.037 36.3507H127.689V38.34H131.037V36.3507Z" fill="#231F20"/>
<path d="M161.087 36.3507H157.739V38.34H161.087V36.3507Z" fill="#231F20"/>
<path d="M155.08 36.3507H151.732V38.34H155.08V36.3507Z" fill="#231F20"/>
<path d="M149.086 36.3507H145.738V38.34H149.086V36.3507Z" fill="#231F20"/>
<path d="M179.136 36.3507H175.788V38.34H179.136V36.3507Z" fill="#231F20"/>
<path d="M173.128 36.3507H169.78V38.34H173.128V36.3507Z" fill="#231F20"/>
<path d="M167.134 36.3507H163.786V38.34H167.134V36.3507Z" fill="#231F20"/>
<path d="M197.171 36.3507H193.823V38.34H197.171V36.3507Z" fill="#231F20"/>
<path d="M191.163 36.3507H187.816V38.34H191.163V36.3507Z" fill="#231F20"/>
<path d="M185.183 36.3507H181.835V38.34H185.183V36.3507Z" fill="#231F20"/>
<path d="M215.219 36.3507H211.872V38.34H215.219V36.3507Z" fill="#231F20"/>
<path d="M209.212 36.3507H205.864V38.34H209.212V36.3507Z" fill="#231F20"/>
<path d="M203.231 36.3507H199.883V38.34H203.231V36.3507Z" fill="#231F20"/>
<path d="M233.268 36.3507H229.92V38.34H233.268V36.3507Z" fill="#231F20"/>
<path d="M227.26 36.3507H223.913V38.34H227.26V36.3507Z" fill="#231F20"/>
<path d="M221.28 36.3507H217.932V38.34H221.28V36.3507Z" fill="#231F20"/>
<path fill-rule="evenodd" clip-rule="evenodd" d="M247.81 35.9263L248.286 37.8493C248.868 37.73 249.437 37.5178 250.006 37.3454C250.575 37.173 251.131 36.9077 251.674 36.6425L250.827 34.8521C250.35 35.0909 249.834 35.2633 249.345 35.4622C248.855 35.6611 248.286 35.7937 247.81 35.9263Z" fill="#231F20"/>
<path fill-rule="evenodd" clip-rule="evenodd" d="M241.961 36.3507V38.34H243.642C244.197 38.34 244.753 38.34 245.402 38.34L245.269 36.3507C244.25 36.3772 243.06 36.3375 241.961 36.3507Z" fill="#231F20"/>
<path d="M239.315 36.3507H235.967V38.34H239.315V36.3507Z" fill="#231F20"/>
<path fill-rule="evenodd" clip-rule="evenodd" d="M258.832 23.9907L260.777 24.4018C260.883 23.8315 261.015 23.248 261.108 22.6645L261.254 20.9139L259.282 20.7681L259.15 22.3993C259.057 22.89 258.938 23.4204 258.832 23.9907Z" fill="#231F20"/>
<path fill-rule="evenodd" clip-rule="evenodd" d="M256.834 29.2954L258.528 30.3166C259.133 29.2769 259.634 28.1797 260.023 27.0409L258.157 26.3778C257.806 27.3888 257.363 28.3654 256.834 29.2954V29.2954Z" fill="#231F20"/>
<path fill-rule="evenodd" clip-rule="evenodd" d="M252.997 33.526L254.148 35.1439C255.124 34.4294 256.013 33.6014 256.794 32.6772L255.299 31.351C254.617 32.1617 253.845 32.8914 252.997 33.526V33.526Z" fill="#231F20"/>
<path d="M260.605 2.06885L262.127 6.14024C262.283 6.56571 262.53 6.95211 262.85 7.27268C263.169 7.59326 263.555 7.84036 263.979 7.9969L268.042 9.522L263.979 11.0471C263.557 11.203 263.172 11.4483 262.853 11.7664C262.533 12.0845 262.286 12.4679 262.127 12.8905L260.605 16.9752L259.097 12.8905C258.936 12.4692 258.688 12.087 258.368 11.7692C258.049 11.4514 257.666 11.2053 257.244 11.0471L253.182 9.522L257.244 7.9969C257.668 7.83805 258.052 7.59013 258.371 7.26986C258.691 6.94959 258.938 6.5644 259.097 6.14024L260.605 2.06885Z" fill="black"/>
<path d="M268.267 2.37386L267.658 3.79287C267.593 3.94121 267.559 4.10156 267.559 4.26367C267.559 4.42579 267.593 4.58613 267.658 4.73447L268.306 6.16675L266.89 5.51692C266.744 5.44444 266.584 5.40674 266.421 5.40674C266.258 5.40674 266.097 5.44444 265.951 5.51692L264.522 6.16675L265.17 4.73447C265.243 4.58811 265.28 4.42699 265.28 4.26367C265.28 4.10035 265.243 3.93923 265.17 3.79287L264.522 2.37386L265.951 3.02369C266.099 3.08909 266.259 3.12287 266.421 3.12287C266.582 3.12287 266.742 3.08909 266.89 3.02369L268.267 2.37386Z" fill="black"/>
</g>
<defs>
<clipPath id="clip0_90:432">
<rect width="270" height="47" fill="white"/>
</clipPath>
</defs>
</svg>
